<svg xmlns="http://www.w3.org/2000/svg" viewBox="0 0 200 200" width="200" height="200">
<defs>
  <radialGradient id="bggirl9" cx="32%" cy="26%" r="85%">
    <stop offset="0%" stop-color="#dcdcff"/>
    <stop offset="100%" stop-color="#a9adff"/>
  </radialGradient>
  <radialGradient id="skingirl9" cx="38%" cy="30%" r="75%">
    <stop offset="0%" stop-color="#9C6B42"/>
    <stop offset="60%" stop-color="#7E5230"/>
    <stop offset="100%" stop-color="#603D22"/>
  </radialGradient>
</defs>
<rect width="200" height="200" fill="url(#bggirl9)"/>
<path d="M 34 200 Q 40 148 100 140 Q 160 148 166 200 Z" fill="#818cf8"/>
<path d="M 34 200 Q 40 148 100 140 L 100 200 Z" fill="#6366f1" opacity="0.55"/>
<path d="M 82 146 Q 100 158 118 146 L 118 156 Q 100 168 82 156 Z" fill="#ffffff"/>
<ellipse cx="70" cy="106" rx="8" ry="12" fill="url(#skingirl9)"/>
<ellipse cx="130" cy="106" rx="8" ry="12" fill="url(#skingirl9)"/>
<path d="M100 40 C130 40 143 66 141 92 C139 118 122 138 100 138 C78 138 61 118 59 92 C57 66 70 40 100 40 Z" fill="url(#skingirl9)"/>
<path d="M59 92 C61 114 76 130 96 136 C85 126 80 112 80 94 Z" fill="#000000" opacity="0.05"/>
<path d="M76 78 Q86 69 97 75" stroke="#2b1a10" stroke-width="3.4" stroke-linecap="round" fill="none"/>
<path d="M103 75 Q114 69 124 78" stroke="#2b1a10" stroke-width="3.4" stroke-linecap="round" fill="none"/>
<ellipse cx="85" cy="92" rx="8.5" ry="6" fill="#ffffff"/>
<ellipse cx="115" cy="92" rx="8.5" ry="6" fill="#ffffff"/>
<circle cx="85" cy="92" r="4" fill="#2E2E2E"/><circle cx="115" cy="92" r="4" fill="#2E2E2E"/>
<circle cx="85" cy="92" r="1.8" fill="#1A1310"/><circle cx="115" cy="92" r="1.8" fill="#1A1310"/>
<circle cx="83" cy="90" r="1.1" fill="#ffffff"/><circle cx="113" cy="90" r="1.1" fill="#ffffff"/>
<path d="M78 88 Q85 83.5 92 88" stroke="#2A1A12" stroke-width="1.6" fill="none" stroke-linecap="round"/>
<path d="M108 88 Q115 83.5 122 88" stroke="#2A1A12" stroke-width="1.6" fill="none" stroke-linecap="round"/>
<path d="M98 96 Q95 106 93 111 Q97 115 101 113" stroke="#000000" stroke-opacity="0.22" stroke-width="2.2" fill="none" stroke-linecap="round"/>
<path d="M85 121 Q100 118 115 121 Q100 129 85 121 Z" fill="#9c5344"/>
<path d="M87 121 Q100 124 113 121" stroke="#000000" stroke-opacity="0.25" stroke-width="1" fill="none"/>
<ellipse cx="72" cy="112" rx="7.5" ry="4.8" fill="#FF9E9E" opacity="0.35"/><ellipse cx="128" cy="112" rx="7.5" ry="4.8" fill="#FF9E9E" opacity="0.35"/>
<circle cx="66" cy="76" r="18" fill="#2b1a10"/><circle cx="86" cy="48" r="19" fill="#2b1a10"/><circle cx="114" cy="48" r="19" fill="#2b1a10"/><circle cx="134" cy="76" r="18" fill="#2b1a10"/>
<circle cx="58" cy="104" r="15" fill="#2b1a10"/><circle cx="142" cy="104" r="15" fill="#2b1a10"/><circle cx="100" cy="40" r="19" fill="#2b1a10"/>
<path d="M58 66 Q100 36 142 66" fill="none" stroke="#f59e0b" stroke-width="9" stroke-linecap="round"/>
</svg>